<svg xmlns="http://www.w3.org/2000/svg" version="1.1" xmlns:xlink="http://www.w3.org/1999/xlink" xmlns:svgjs="http://svgjs.com/svgjs" width="1000" height="1000"><rect width="1000" height="1000" rx="250" ry="250" fill="#ededed"></rect><g transform="matrix(11.25,0,0,11.25,50,317.13276863098145)"><svg xmlns="http://www.w3.org/2000/svg" version="1.1" xmlns:xlink="http://www.w3.org/1999/xlink" xmlns:svgjs="http://svgjs.com/svgjs" width="80" height="33"><svg width="80" height="33" viewBox="0 0 80 33" fill="none" xmlns="http://www.w3.org/2000/svg">
<path d="M11.1521 32.4457C11.1521 32.4457 11.4561 31.4053 11.2001 30.1861L10.7361 27.5364C9.39211 26.9024 7.9681 26.5773 6.49608 26.5773C5.13606 26.5773 3.95205 26.7724 2.86403 27.1788L1.93602 32.4619H0L5.18406 3.03873C5.40807 1.59196 4.24005 0.405273 4.24005 0.405273H9.29611L14.3042 28.8531C14.7042 31.2915 16.0962 32.4619 16.0962 32.4619L11.1521 32.4457ZM6.51208 24.6266C7.80809 24.6266 9.08811 24.8054 10.3201 25.1468L6.78408 5.03821L3.26404 25.0167C4.33605 24.7566 5.42407 24.6266 6.51208 24.6266Z" fill="#A27B40"></path>
<path d="M34.1123 32.446C34.1123 32.446 32.7203 31.2756 32.3203 28.8372L27.3923 0.844469L27.3123 0.373047L22.2082 0.373047C22.2082 0.373047 23.4242 1.7548 23.2002 3.00651C23.1842 3.13655 23.1522 3.25035 23.1522 3.31537L18.0162 32.446L19.9682 32.446L24.8002 5.0385L29.2323 30.1864C29.4883 31.4056 29.1843 32.446 29.1843 32.446L34.1123 32.446Z" fill="#A27B40"></path>
<path d="M63.4078 32.446L78.368 32.446L80 27.683C80 27.683 78.368 29.4874 76.0639 29.4874L66.7679 29.4874L72.2399 14.7108L67.8399 2.24248L78.4 2.24248L77.616 0.373047L63.8558 0.373047L69.5519 15.8975L63.4078 32.446Z" fill="#A27B40"></path>
<path d="M44.9449 28.5617L44.9449 29.472L40.5129 29.472C38.2568 29.472 36.5128 27.6676 36.5128 27.6676L38.2088 32.4306L47.0089 32.4306L47.0089 26.9848L46.4809 26.8548C41.4249 25.6356 38.3528 20.45 38.3528 14.5328C38.3528 7.57526 42.6889 1.93445 48.769 1.93445C54.849 1.93445 59.1691 7.59152 59.1691 14.5328C59.1691 20.45 56.129 25.6356 51.057 26.8548L50.529 26.9848L50.529 32.4306L59.3131 32.4306L61.0091 27.6676C61.0091 27.6676 59.2651 29.472 57.009 29.472L52.577 29.472L52.577 28.5617C58.7851 26.8223 63.0731 21.1164 63.0731 14.5491C63.0731 6.51862 56.641 0 48.753 0C40.8489 0 34.4328 6.53488 34.4328 14.5491C34.4488 21.1164 38.7368 26.8223 44.9449 28.5617Z" fill="#A27B40"></path>
</svg></svg></g></svg>